<?xml version="1.0" encoding="utf-8"?>
<!-- Generator: Adobe Illustrator 25.3.1, SVG Export Plug-In . SVG Version: 6.00 Build 0)  -->
<svg version="1.1" id="Capa_1" xmlns="http://www.w3.org/2000/svg" xmlns:xlink="http://www.w3.org/1999/xlink" x="0px" y="0px"
	 viewBox="0 0 256 256" style="enable-background:new 0 0 256 256;" xml:space="preserve">
<style type="text/css">
	.st0{fill:#29B5BF;}
	.st1{fill:#FFFFFF;}
</style>
<g>
	<path class="st0" d="M43.3,40.8L96,10.4c20.4-11.8,45.5-11.8,65.9,0l52.7,30.4c20.4,11.8,33,33.5,33,57.1v60.9
		c0,23.5-12.6,45.3-33,57.1l-52.7,30.4c-20.4,11.8-45.5,11.8-65.9,0l-52.7-30.4c-20.4-11.8-33-33.5-33-57.1l0-60.9
		C10.3,74.3,22.9,52.6,43.3,40.8z"/>
</g>
<g>
	<circle class="st1" cx="161.8" cy="185.8" r="18.5"/>
	<g>
		<circle class="st0" cx="161.8" cy="185.8" r="7"/>
	</g>
	<path class="st1" d="M72.6,191.1h74.8c3.1,0,5.7-2.5,5.7-5.7v0c0-3.1-2.5-5.7-5.7-5.7H72.6c-3.1,0-5.7,2.5-5.7,5.7v0
		C67,188.6,69.5,191.1,72.6,191.1z"/>
</g>
<g id="ML_bien">
	<path class="st1" d="M163,68.8c0-2.3,1.8-4.1,4.1-4.1h12.3c2.3,0,4.1,1.8,4.1,4.1v59.9c0,2.3,1.8,4.1,4.1,4.1H218
		c2.3,0,4.1,1.8,4.1,4.1v9.9c0,2.3-1.8,4.1-4.1,4.1h-50.9c-2.3,0-4.1-1.8-4.1-4.1V68.8z"/>
	<path class="st1" d="M48.1,148.1V67.5c0-1.6,1.3-2.8,2.8-2.8h16.5c0.7,0,1.4,0.3,1.9,0.8l23.9,22.9c1.1,1,2.8,1,3.9,0L121,65.5
		c0.5-0.5,1.2-0.8,1.9-0.8h17c1.6,0,2.8,1.3,2.8,2.8v80.6c0,1.6-1.3,2.8-2.8,2.8h-15.4c-1.6,0-2.8-1.3-2.8-2.8V96.9
		c0-2.5-3-3.7-4.8-2l-19.4,19c-1.1,1.1-2.8,1.1-3.9,0L73.2,94.7c-1.8-1.7-4.7-0.4-4.7,2l0,51.4c0,1.6-1.3,2.8-2.8,2.8H50.9
		C49.3,150.9,48.1,149.6,48.1,148.1z"/>
</g>
</svg>
