<svg id="Capa_2" data-name="Capa 2" xmlns="http://www.w3.org/2000/svg" viewBox="0 0 256.06 256.06"><defs><style>.cls-1,.cls-2{fill:#fff;stroke:#000;stroke-miterlimit:10;}.cls-1{stroke-width:0.25px;}.cls-2{stroke-width:0.5px;}</style></defs><path class="cls-1" d="M188.46,177.65,245,223.2l-43.73-29.15L255.88,256l-61.95-54.66,29.15,43.73-45.55-56.48,20,38.26L142.91,143l83.82,54.66Z" transform="translate(0.09 -0.03)"/><path class="cls-1" d="M78.35,67.54,32.8,11.05Q47.36,32.92,62,54.78L0,.12l54.66,62L10.93,32.92,67.41,78.47l-38.26-20L113,113.09,58.3,29.27Z" transform="translate(0.09 -0.03)"/><path class="cls-2" d="M122.11,122.24C77.33,167,50,212.29,61.08,223.36s56.34-16.26,101.12-61,72.1-90,61-101.12S166.89,77.46,122.11,122.24Zm29.16,29.15c-36.73,36.73-72.63,60.38-80.17,52.84s16.11-43.44,52.84-80.17,72.62-60.39,80.16-52.84S188,114.66,151.27,151.39Z" transform="translate(0.09 -0.03)"/><path class="cls-2" d="M151.27,151.39c5.75-5.75,11.18-11.49,16.22-17.09a30.92,30.92,0,1,0-33.31,33.31C139.78,162.57,145.51,157.14,151.27,151.39Z" transform="translate(0.09 -0.03)"/></svg>