<svg id="Capa_2" data-name="Capa 2" xmlns="http://www.w3.org/2000/svg" viewBox="0 0 1023 1023"><defs><style>.cls-1{fill:#fff;}</style></defs><path class="cls-1" d="M291.56,250.26l-169-209.57L230.72,202.94.87.13,203.68,230,41.43,121.82,251,290.82,109,216.46q155.49,101.4,311,202.81l-202.8-311Q254.37,179.29,291.56,250.26Z" transform="translate(-0.87 -0.13)"/><path class="cls-1" d="M915.71,806.8,629.09,619.88l-8.47,8.47Q714.07,771.66,807.54,915L733.18,773q84.5,104.79,169,209.57L794,820.32l229.85,202.81L821.06,793.28,983.31,901.45l-209.57-169Q844.72,769.63,915.71,806.8Z" transform="translate(-0.87 -0.13)"/><path class="cls-1" d="M565.81,566.08c24.22-24.22,46.86-48.32,67.64-71.76A115.44,115.44,0,1,0,495.16,632.73C518.25,612.22,542,589.91,565.81,566.08Z" transform="translate(-0.87 -0.13)"/><path class="cls-1" d="M540.91,395.79q6.06.84,12,2.24c105.17-91.86,195.37-144,217.84-121.5,28,28-59.77,161.17-196,297.45S305.27,798,277.27,770c-22.55-22.55,30-113.3,122.47-218.95q-1.39-6-2.23-12C273.63,678.77,205.08,806,240.08,841c41.07,41.07,209.05-60.33,375.2-226.47S882.81,280.41,841.74,239.35C806.83,204.43,680.18,272.52,540.91,395.79Z" transform="translate(-0.87 -0.13)"/></svg>