<?xml version="1.0" encoding="utf-8"?>
<!-- Generator: Adobe Illustrator 25.3.1, SVG Export Plug-In . SVG Version: 6.00 Build 0)  -->
<svg version="1.1" id="Capa_1" xmlns="http://www.w3.org/2000/svg" xmlns:xlink="http://www.w3.org/1999/xlink" x="0px" y="0px"
	 viewBox="0 0 800 800" style="enable-background:new 0 0 800 800;" xml:space="preserve">
<style type="text/css">
	.st0{fill:#FFFFFF;}
</style>
<path class="st0" d="M400,0C180.9,0,3.4,179,3.4,400S180.9,800,400,800c219,0,396.6-179,396.6-400S619,0,399.9,0H400z M400,17.6
	c101.2,0,196.5,39.8,268.1,112c71.5,71.9,111.3,169.2,111.1,270.5c0,102.1-39.4,198.2-111.1,270.5c-70.7,71.8-167.3,112.1-268.1,112
	c-100.8,0.1-197.4-40.2-268.1-112C60.4,598.6,20.4,501.3,20.7,400c0-102.1,39.6-198.2,111.1-270.5C202.5,57.7,299.2,17.3,400,17.6
	L400,17.6z M380.1,158.3c-64.6,17.3-124.4,50.5-204,141.9s-64.6,166.9-64.6,166.9s22-51.9,74.9-106.6c25.1-25.9,43.8-34.6,56.6-34.6
	c11.4-0.6,21.1,8.6,21.1,20.1v185.5c0,18.3-11.8,22.4-22.8,22.1c-9.2-0.1-17.8-3.4-17.8-3.4c54.3,78.9,184.2,90,184.2,90l57-61
	l1.3,1.2l52.2,44.5c95.6-56.8,141.7-162,141.7-162c-42.7,45-69.8,55.6-85.9,55.6c-14.3-0.1-19.9-8.5-19.9-8.5
	c-0.8-3.9-2.1-60.4-2.6-116.9c-0.5-58.5,0-117.1,2.9-117.2c16.5-31,69.1-93.5,69.1-93.5c-98.3,19.4-151.8,83.8-151.8,83.8
	c-15.9-12.5-48.2-10.4-48.2-10.4c15.1,8.3,30.2,32.6,30.2,52.6v197.4c0,0-33,29-58.3,29c-15.1,0-24.4-8.2-29.4-15
	c-1.9-2.6-3.6-5.5-4.9-8.6V267.6c-3.5,2.6-7.8,4-12.1,4.2c-5.5,0-11.1-2.7-14.9-10.7c-2.9-6-4.7-15-4.7-28.1
	C329.3,188.1,380.1,158.3,380.1,158.3L380.1,158.3z"/>
</svg>
